# xmcd
# 
# Track frame offsets:
#     150
#     16767
#     34275
#     51177
#     67205
#     80505
#     94917
#     104427
#     119627
#     137652
#     154820
#     168007
#     181515
#     201922
#     211905
#     223917
# 
# Disc length: 3172
# 
# Revision: 4
# Processed by: cddbd v1.5.2PL0 Copyright (c) Steve Scherf et al.
# Submitted via: fre:ac v1.0.17
# 
DISCID=e50c6210
DTITLE=徐小鳳 - 徐小鳳白金珍藏版
DYEAR=1990
DGENRE=Pop
TTITLE0=無奈
TTITLE1=人似浪花
TTITLE2=深秋立樓頭
TTITLE3=夜風中
TTITLE4=人生滿希望
TTITLE5=春夏秋冬
TTITLE6=賣餛飩
TTITLE7=雪後有春風
TTITLE8=風的季節
TTITLE9=漫漫前路
TTITLE10=風雨同路
TTITLE11=漫天風雨
TTITLE12=歌聲暖我心
TTITLE13=賣湯丸
TTITLE14=逍遙四方
TTITLE15=音樂盒
EXTD=
EXTT0=
EXTT1=
EXTT2=
EXTT3=
EXTT4=
EXTT5=
EXTT6=
EXTT7=
EXTT8=
EXTT9=
EXTT10=
EXTT11=
EXTT12=
EXTT13=
EXTT14=
EXTT15=
PLAYORDER=
